<?xml version="1.0" encoding="UTF-8"?>
<svg id="Layer_1" xmlns="http://www.w3.org/2000/svg" version="1.1" viewBox="0 0 1920 1080">
  <!-- Generator: Adobe Illustrator 29.8.1, SVG Export Plug-In . SVG Version: 2.1.1 Build 2)  -->
  <defs>
    <style>
      .st0 {
        fill: #10e0f0;
      }

      .st1 {
        fill: #fff;
      }

      .st2 {
        fill: #f13193;
      }
    </style>
  </defs>
  <path class="st1" d="M455.68,428.2c0-53.47,40.22-89.84,96.83-89.84v89.12h64.07v61.18c-15.17,14.69-40.22,24.09-67.44,24.09-57.09-.01-93.46-33.25-93.46-84.55Z"/>
  <path class="st2" d="M630.3,425.31c0-50.1,36.86-86.95,87.44-86.95s86.95,36.85,86.95,86.95-36.85,87.43-86.71,87.43-87.67-36.85-87.67-87.43h-.01Z"/>
  <polygon class="st1" points="825.16 512.74 912.11 598.49 912.11 517.08 972.33 517.08 972.33 685.68 825.16 685.68 825.16 512.74"/>
  <polygon class="st1" points="1001.23 517.08 1130.09 517.08 1130.09 576.33 1060.48 576.33 1060.48 595.36 1117.08 595.36 1117.08 606.44 1060.48 606.44 1060.48 626.43 1130.09 626.43 1130.09 685.68 1001.23 685.68 1001.23 517.08"/>
  <path class="st0" d="M1146.23,601.14c0-50.1,36.85-86.95,87.43-86.95s86.95,36.85,86.95,86.95-36.85,87.43-86.71,87.43-87.67-36.85-87.67-87.43Z"/>
  <polygon class="st1" points="1341.09 512.74 1428.04 598.49 1428.04 517.08 1488.25 517.08 1488.25 685.68 1341.08 685.68 1341.08 512.74 1341.09 512.74"/>
</svg>